<mxfile host="app.diagrams.net" modified="2024-06-25T13:17:37.592Z" agent="Mozilla/5.0 (Windows NT 10.0; Win64; x64) AppleWebKit/537.36 (KHTML, like Gecko) Chrome/126.0.0.0 Safari/537.36 Edg/126.0.0.0" etag="yKq4ta36VjVAOJh672BL" version="24.6.1" type="device">
  <diagram name="Страница — 1" id="CvOf5kAjBQZbv4GpptPw">
    <mxGraphModel dx="1782" dy="1122" grid="1" gridSize="10" guides="1" tooltips="1" connect="1" arrows="1" fold="1" page="1" pageScale="1" pageWidth="1169" pageHeight="1654" math="0" shadow="0">
      <root>
        <mxCell id="0" />
        <mxCell id="1" parent="0" />
        <mxCell id="rIAr9eGZf9rtxrzOuFO6-1" value="" style="shape=image;verticalLabelPosition=bottom;labelBackgroundColor=default;verticalAlign=top;aspect=fixed;imageAspect=0;image=https://www.worksheeto.com/postpic/2012/01/world-map-with-latitude-and-longitude_718187.png;" vertex="1" parent="1">
          <mxGeometry x="60" y="70" width="1200" height="849" as="geometry" />
        </mxCell>
      </root>
    </mxGraphModel>
  </diagram>
</mxfile>
